<svg width="82" height="100" viewBox="0 0 82 100" fill="none" xmlns="http://www.w3.org/2000/svg">
<path fill-rule="evenodd" clip-rule="evenodd" d="M4.9375 27.1875C3.98144 30.5415 3.49761 34.0124 3.5 37.5C3.5 48.0687 7.875 57.625 14.9125 64.4375C16.1812 65.6625 17.1562 66.9375 17.7437 68.3063L22.5062 79.3625C22.7479 79.9229 23.1483 80.4002 23.6581 80.7356C24.1679 81.071 24.7648 81.2498 25.375 81.25C24.5462 81.25 23.7513 81.5792 23.1653 82.1653C22.5792 82.7513 22.25 83.5462 22.25 84.375C22.25 85.2038 22.5792 85.9987 23.1653 86.5847C23.7513 87.1708 24.5462 87.5 25.375 87.5C24.5462 87.5 23.7513 87.8292 23.1653 88.4153C22.5792 89.0013 22.25 89.7962 22.25 90.625C22.25 91.4538 22.5792 92.2487 23.1653 92.8347C23.7513 93.4208 24.5462 93.75 25.375 93.75L26.775 96.5437C27.2937 97.5818 28.0911 98.4549 29.078 99.0653C30.0648 99.6757 31.2021 99.9994 32.3625 100H49.6375C50.7979 99.9994 51.9352 99.6757 52.922 99.0653C53.9089 98.4549 54.7063 97.5818 55.225 96.5437L56.625 93.75C57.4538 93.75 58.2487 93.4208 58.8347 92.8347C59.4208 92.2487 59.75 91.4538 59.75 90.625C59.75 89.7962 59.4208 89.0013 58.8347 88.4153C58.2487 87.8292 57.4538 87.5 56.625 87.5C57.4538 87.5 58.2487 87.1708 58.8347 86.5847C59.4208 85.9987 59.75 85.2038 59.75 84.375C59.75 83.5462 59.4208 82.7513 58.8347 82.1653C58.2487 81.5792 57.4538 81.25 56.625 81.25C57.2693 81.2505 57.898 81.0519 58.425 80.6813L52.7375 75H27.4375L23.4875 65.8313C22.4812 63.6112 21.0453 61.6123 19.2625 59.95C15.6282 56.4422 12.9014 52.1031 11.3171 47.3069C9.73292 42.5107 9.3388 37.4012 10.1687 32.4187L4.9375 27.1875ZM14.8625 10.6063L19.2875 15.025C25.1813 9.33256 33.0751 6.18274 41.2688 6.25394C49.4624 6.32514 57.3003 9.61167 63.0943 15.4057C68.8883 21.1997 72.1749 29.0376 72.2461 37.2312C72.3173 45.4249 69.1674 53.3187 63.475 59.2125L67.8938 63.6313C74.7247 56.5587 78.5045 47.0861 78.419 37.2537C78.3336 27.4213 74.3898 18.0159 67.4369 11.0631C60.4841 4.11025 51.0787 0.166414 41.2463 0.0809735C31.4139 -0.00446725 21.9351 3.77532 14.8625 10.6063ZM1.2875 10.2875C1.57779 9.99648 1.92263 9.76559 2.30229 9.60805C2.68195 9.45051 3.08895 9.36941 3.5 9.36941C3.91105 9.36941 4.31805 9.45051 4.69771 9.60805C5.07737 9.76559 5.42221 9.99648 5.7125 10.2875L80.7125 85.2875C81.2993 85.8743 81.6289 86.6702 81.6289 87.5C81.6289 88.3299 81.2993 89.1257 80.7125 89.7125C80.1257 90.2993 79.3298 90.6289 78.5 90.6289C77.6701 90.6289 76.8743 90.2993 76.2875 89.7125L1.2875 14.7125C0.99648 14.4222 0.765587 14.0774 0.608047 13.6977C0.450506 13.3181 0.369413 12.911 0.369413 12.5C0.369413 12.089 0.450506 11.6819 0.608047 11.3023C0.765587 10.9226 0.99648 10.5778 1.2875 10.2875Z" fill="#20441F"/>
</svg>
