<svg width="76" height="100" viewBox="0 0 76 100" fill="none" xmlns="http://www.w3.org/2000/svg">
<path d="M0.500007 37.5C0.499813 31.3076 2.03312 25.2115 4.96301 19.756C7.89289 14.3006 12.1282 9.65561 17.2907 6.23585C22.4532 2.81609 28.3822 0.727994 34.5483 0.158012C40.7145 -0.411969 46.9258 0.553905 52.6277 2.96939C58.3296 5.38487 63.3445 9.17479 67.2248 14.0007C71.1051 18.8266 73.7299 24.5384 74.8648 30.6259C75.9997 36.7134 75.6095 42.9873 73.7289 48.8872C71.8483 54.7872 68.5359 60.1296 64.0875 64.4375C62.8188 65.6625 61.8438 66.9375 61.2563 68.3062L56.4938 79.3625C56.2521 79.9228 55.8517 80.4002 55.3419 80.7356C54.8321 81.071 54.2352 81.2498 53.625 81.25C54.4538 81.25 55.2487 81.5792 55.8347 82.1653C56.4208 82.7513 56.75 83.5462 56.75 84.375C56.75 85.2038 56.4208 85.9987 55.8347 86.5847C55.2487 87.1708 54.4538 87.5 53.625 87.5C54.4538 87.5 55.2487 87.8292 55.8347 88.4153C56.4208 89.0013 56.75 89.7962 56.75 90.625C56.75 91.4538 56.4208 92.2487 55.8347 92.8347C55.2487 93.4208 54.4538 93.75 53.625 93.75L52.225 96.5437C51.7063 97.5817 50.9089 98.4549 49.922 99.0653C48.9352 99.6757 47.7979 99.9994 46.6375 100H29.3625C28.2021 99.9994 27.0648 99.6757 26.078 99.0653C25.0911 98.4549 24.2937 97.5817 23.775 96.5437L22.375 93.75C21.5462 93.75 20.7514 93.4208 20.1653 92.8347C19.5792 92.2487 19.25 91.4538 19.25 90.625C19.25 89.7962 19.5792 89.0013 20.1653 88.4153C20.7514 87.8292 21.5462 87.5 22.375 87.5C21.5462 87.5 20.7514 87.1708 20.1653 86.5847C19.5792 85.9987 19.25 85.2038 19.25 84.375C19.25 83.5462 19.5792 82.7513 20.1653 82.1653C20.7514 81.5792 21.5462 81.25 22.375 81.25C21.7637 81.2511 21.1655 81.0728 20.6545 80.7373C20.1435 80.4018 19.7421 79.9238 19.5 79.3625L14.7438 68.3C14.0628 66.8391 13.1007 65.5266 11.9125 64.4375C8.29765 60.9448 5.42395 56.7592 3.46309 52.1309C1.50224 47.5026 0.49447 42.5265 0.500007 37.5ZM38 6.25C31.776 6.24894 25.6935 8.10644 20.532 11.5844C15.3705 15.0624 11.3651 20.0025 9.02912 25.7715C6.69319 31.5405 6.13314 37.8756 7.42074 43.9649C8.70835 50.0543 11.785 55.6204 16.2563 59.95C17.9 61.5375 19.4688 63.475 20.4813 65.8312L24.4375 75H51.575L55.525 65.8312C56.5375 63.475 58.1063 61.5375 59.75 59.95C64.2217 55.62 67.2984 50.0533 68.5858 43.9634C69.8733 37.8735 69.3127 31.5379 66.976 25.7686C64.6393 19.9993 60.6329 15.0593 55.4704 11.5818C50.3079 8.1043 44.2245 6.24769 38 6.25Z" fill="#05FF00"/>
</svg>
